<svg id="Layer_1" height="512" viewBox="0 0 75 75" width="512" xmlns="http://www.w3.org/2000/svg" data-name="Layer 1"><path d="m61.5 51.853v1.921a2.434 2.434 0 0 1 -2.431 2.431h-19.477a4.077 4.077 0 0 1 -1.921-.49l-5.842-3.209h-11.606a5.259 5.259 0 0 1 -5.246-5.217v-.067a4.755 4.755 0 0 1 .25-1.528c.24-.7.5-1.479.8-2.344 1.767-5-1.028-18.245-2.527-24.557h18.339v3.756h-4.131a2.19 2.19 0 0 0 0 4.362h4.131v5.689a5.95 5.95 0 0 0 .144 1.316l-2.075 2.248a1.432 1.432 0 0 0 .077 2.037 1.469 1.469 0 0 0 .759.365 1.448 1.448 0 0 0 1.277-.442l1.355-1.47a6.122 6.122 0 0 0 3.555 2.018l-.49 2.018a1.448 1.448 0 0 0 1.066 1.739.765.765 0 0 0 .212.028 1.433 1.433 0 0 0 1.527-1.1l.625-2.584h4.285l.269 2.594a1.37 1.37 0 0 0 1.566 1.153c.029 0 .048-.01.067-.01a1.387 1.387 0 0 0 1.23-1.47l-.24-2.267h1.374a13.084 13.084 0 0 1 13.078 13.08z" fill="#b6d2dd"/><path d="m61.5 51.857v1.92a2.441 2.441 0 0 1 -2.44 2.43h-.11a2.215 2.215 0 0 0 .16-.85v-1.92a13.072 13.072 0 0 0 -11.89-13.01l-.17-1.65h1.37a13.091 13.091 0 0 1 13.08 13.08z" fill="#acc6cc"/><path d="m31.826 52.5v2.221a1.479 1.479 0 0 1 -1.479 1.479h-12.147a3.222 3.222 0 0 1 -3.216-3.216v-5.7a5.25 5.25 0 0 0 5.242 5.216z" fill="#b6d2dd"/><path d="m30.347 56.951h-12.147a3.97 3.97 0 0 1 -3.966-3.966v-5.7a.75.75 0 0 1 1.5 0 4.486 4.486 0 0 0 4.5 4.465h11.6a.75.75 0 0 1 .75.75v2.221a2.231 2.231 0 0 1 -2.237 2.23zm-14.616-5.722v1.756a2.468 2.468 0 0 0 2.469 2.466h12.15a.73.73 0 0 0 .729-.728v-1.471h-10.852a6 6 0 0 1 -4.496-2.023z" fill="#556065"/><path d="m34.289 22.549v4.362h-6.581a2.19 2.19 0 0 1 0-4.362z" fill="#ededed"/><path d="m34.289 27.661h-6.581a2.938 2.938 0 0 1 0-5.862h6.581a.75.75 0 0 1 .75.75v4.362a.75.75 0 0 1 -.75.75zm-6.581-4.361a1.446 1.446 0 0 0 0 2.862h5.831v-2.862z" fill="#556065"/><path d="m28.59 25.48a.751.751 0 0 1 -.75-.75.868.868 0 0 1 .05-.28.739.739 0 0 1 .17-.25.75.75 0 0 1 1.28.53.749.749 0 0 1 -.22.53.767.767 0 0 1 -.53.22z" fill="#556065"/><path d="m34.721 35.2-1.345 1.45-1.355 1.47a1.448 1.448 0 0 1 -1.277.442 1.469 1.469 0 0 1 -.759-.365 1.432 1.432 0 0 1 -.077-2.037l2.075-2.248.624-.672a1.441 1.441 0 0 1 2.114 1.96z" fill="#ededed"/><path d="m30.964 39.332a2.469 2.469 0 0 1 -.331-.024 2.235 2.235 0 0 1 -1.154-.554 2.182 2.182 0 0 1 -.119-3.1l2.7-2.919a2.191 2.191 0 1 1 3.213 2.981l-2.7 2.918a2.182 2.182 0 0 1 -1.609.698zm2.7-5.8h-.027a.683.683 0 0 0 -.478.222l-2.7 2.922a.685.685 0 0 0 .033.976.725.725 0 0 0 .379.178.7.7 0 0 0 .6-.211l2.7-2.922a.684.684 0 0 0 -.036-.972.69.69 0 0 0 -.47-.197z" fill="#556065"/><path d="m40.178 37.5-.307 1.278-.625 2.584a1.433 1.433 0 0 1 -1.527 1.1.765.765 0 0 1 -.212-.028 1.448 1.448 0 0 1 -1.066-1.739l.49-2.018.451-1.854a1.439 1.439 0 1 1 2.8.682z" fill="#ededed"/><path d="m37.854 43.213c-.069 0-.138 0-.208-.011a.929.929 0 0 1 -.338-.052 2.2 2.2 0 0 1 -1.6-2.635l.943-3.876a2.157 2.157 0 0 1 .975-1.348 2.187 2.187 0 0 1 3.278 2.385l-.931 3.861a2.2 2.2 0 0 1 -2.119 1.676zm.933-6.753a.706.706 0 0 0 -.369.106.682.682 0 0 0 -.306.422l-.942 3.877a.7.7 0 0 0 .518.834c.023 0 .079.008.1.011a.69.69 0 0 0 .726-.526l.931-3.861v-.005a.689.689 0 0 0 -.509-.84.662.662 0 0 0 -.149-.018z" fill="#556065"/><path d="m46.058 42.514c-.019 0-.038.01-.067.01a1.37 1.37 0 0 1 -1.566-1.153l-.269-2.594-.115-1.048a1.446 1.446 0 0 1 2.859-.329l.144 1.374.24 2.267a1.387 1.387 0 0 1 -1.226 1.473z" fill="#ededed"/><g fill="#556065"><path d="m45.78 43.286a2.225 2.225 0 0 1 -1.358-.486 2 2 0 0 1 -.743-1.35l-.379-3.638a2.128 2.128 0 0 1 1.947-2.307 2.268 2.268 0 0 1 1.665.472 1.993 1.993 0 0 1 .743 1.347l.384 3.641a2.132 2.132 0 0 1 -1.864 2.29h-.019a1.1 1.1 0 0 1 -.16.015 1.825 1.825 0 0 1 -.216.016zm-.278-6.3a.722.722 0 0 0 -.092.014.627.627 0 0 0 -.623.655l.384 3.643a.5.5 0 0 0 .192.338.762.762 0 0 0 .546.146.46.46 0 0 1 .07-.011.644.644 0 0 0 .563-.643l-.384-3.643a.493.493 0 0 0 -.192-.335.738.738 0 0 0 -.466-.16z"/><path d="m59.067 56.955h-19.475a4.794 4.794 0 0 1 -2.274-.578l-5.681-3.121h-11.414a5.988 5.988 0 0 1 -5.995-5.967 5.6 5.6 0 0 1 .288-1.832l.8-2.352c1.212-3.424.283-12.221-2.547-24.139a.751.751 0 0 1 .73-.924h18.34a.75.75 0 0 1 .75.75v3.757a.75.75 0 0 1 -.75.75h-4.131a1.446 1.446 0 0 0 0 2.862h4.131a.75.75 0 0 1 .75.75v5.689a5.21 5.21 0 0 0 .125 1.15.748.748 0 0 1 -.18.675l-2.075 2.248a.685.685 0 0 0 .033.976.725.725 0 0 0 .379.178.7.7 0 0 0 .6-.211l1.355-1.47a.723.723 0 0 1 .562-.242.746.746 0 0 1 .554.258 5.416 5.416 0 0 0 3.121 1.772.75.75 0 0 1 .6.915l-.49 2.017a.7.7 0 0 0 .518.834c.023 0 .079.008.1.011a.69.69 0 0 0 .726-.526l.624-2.583a.75.75 0 0 1 .729-.575h4.285a.75.75 0 0 1 .746.673l.269 2.595a.5.5 0 0 0 .192.338.762.762 0 0 0 .546.146.48.48 0 0 1 .07-.011.644.644 0 0 0 .563-.643l-.24-2.269a.749.749 0 0 1 .746-.829h1.374a13.843 13.843 0 0 1 13.827 13.826v1.921a3.185 3.185 0 0 1 -3.181 3.181zm-44.623-37.413c1.693 7.292 4 19.225 2.287 24.058l-.794 2.338a3.971 3.971 0 0 0 -.209 1.284 4.5 4.5 0 0 0 4.495 4.534h11.606a.744.744 0 0 1 .361.093l5.842 3.209a3.312 3.312 0 0 0 1.56.4h19.475a1.683 1.683 0 0 0 1.681-1.681v-1.924a12.341 12.341 0 0 0 -12.326-12.327h-.541l.153 1.439a2.132 2.132 0 0 1 -1.864 2.29h-.019a1.1 1.1 0 0 1 -.16.015 2.2 2.2 0 0 1 -1.569-.473 2 2 0 0 1 -.743-1.35l-.2-1.924h-3.018l-.485 2.011a2.186 2.186 0 0 1 -2.33 1.665.929.929 0 0 1 -.338-.052 2.2 2.2 0 0 1 -1.6-2.635l.313-1.29a6.915 6.915 0 0 1 -2.621-1.482l-.822.891a2.179 2.179 0 0 1 -1.94.677 2.235 2.235 0 0 1 -1.154-.554 2.182 2.182 0 0 1 -.119-3.1l1.815-1.966a6.821 6.821 0 0 1 -.086-1.086v-4.941h-3.386a2.938 2.938 0 0 1 0-5.862h3.381v-2.257z"/></g></svg>